<?xml version="1.0" encoding="utf-8"?>
<!-- Generator: Adobe Illustrator 27.0.0, SVG Export Plug-In . SVG Version: 6.00 Build 0)  -->
<svg version="1.1" id="Layer_1" xmlns="http://www.w3.org/2000/svg" xmlns:xlink="http://www.w3.org/1999/xlink" x="0px" y="0px"
	 viewBox="0 0 103.114 103.114" enable-background="new 0 0 103.114 103.114" xml:space="preserve">
<ellipse transform="matrix(0.3709 -0.9287 0.9287 0.3709 -15.446 80.3121)" fill="#E3D3FA" cx="51.557" cy="51.557" rx="51.557" ry="51.557"/>
<rect x="22.131" y="72.888" fill="#FFFFFF" width="58.853" height="4.268"/>
<path fill="#393C41" d="M80.984,77.659L80.984,77.659L22.13,77.652c-0.133,0-0.26-0.053-0.354-0.146
	c-0.094-0.094-0.146-0.221-0.146-0.354l0.001-4.268c0-0.276,0.224-0.5,0.5-0.5l0,0l58.853,0.006c0.276,0,0.5,0.224,0.5,0.5v4.268
	c0,0.133-0.053,0.26-0.146,0.354C81.244,77.606,81.117,77.659,80.984,77.659z M22.63,76.652l57.854,0.006v-3.268l-57.853-0.006
	L22.63,76.652z"/>
<rect x="19.718" y="74.759" fill="#FFFFFF" width="63.678" height="2.864"/>
<path fill="#393C41" d="M83.396,78.126L83.396,78.126L19.718,78.12c-0.276,0-0.5-0.224-0.5-0.5v-2.864
	c0-0.133,0.053-0.26,0.146-0.354c0.094-0.094,0.221-0.146,0.354-0.146l0,0l63.678,0.007c0.276,0,0.5,0.224,0.5,0.5v2.864
	c0,0.133-0.053,0.26-0.146,0.354C83.656,78.073,83.529,78.126,83.396,78.126z M20.218,77.12l62.678,0.006v-1.864l-62.678-0.007
	V77.12z"/>
<rect x="17.823" y="77.025" fill="#FFFFFF" width="67.468" height="2.577"/>
<path fill="#393C41" d="M85.292,80.105L85.292,80.105l-67.469-0.007c-0.276,0-0.5-0.224-0.5-0.5v-2.577
	c0-0.133,0.053-0.26,0.146-0.354c0.094-0.094,0.221-0.146,0.354-0.146l0,0l67.469,0.007c0.276,0,0.5,0.224,0.5,0.5v2.577
	c0,0.133-0.053,0.26-0.146,0.354C85.551,80.052,85.424,80.105,85.292,80.105z M18.323,79.098l66.469,0.007v-1.577l-66.469-0.007
	V79.098z"/>
<rect x="25.806" y="41.733" fill="#FFFFFF" width="7.569" height="28.948"/>
<path fill="#393C41" d="M33.374,71.182L33.374,71.182l-7.569-0.001c-0.133,0-0.26-0.053-0.353-0.146
	c-0.094-0.094-0.146-0.221-0.146-0.354l0.003-28.949c0-0.133,0.053-0.26,0.147-0.353c0.094-0.094,0.221-0.147,0.353-0.147l0,0
	l7.569,0.001c0.276,0,0.5,0.224,0.5,0.5l-0.003,28.948C33.874,70.958,33.65,71.182,33.374,71.182z M26.304,70.181l6.569,0.001
	l0.003-27.948l-6.569-0.001L26.304,70.181z"/>
<g>
	<rect x="25.059" y="39.871" fill="#FFFFFF" width="9.067" height="2.559"/>
	<path fill="#393C41" d="M34.126,42.931L34.126,42.931l-9.067-0.001c-0.133,0-0.26-0.053-0.353-0.146
		c-0.094-0.094-0.147-0.221-0.147-0.354l0.001-2.559c0-0.276,0.224-0.5,0.5-0.5l0,0l9.066,0.001c0.276,0,0.5,0.224,0.5,0.5v2.559
		c0,0.133-0.053,0.26-0.146,0.354C34.385,42.878,34.258,42.931,34.126,42.931z M25.558,41.93l8.067,0.001v-1.559l-8.066-0.001
		L25.558,41.93z"/>
</g>
<g>
	<rect x="25.056" y="70.301" fill="#FFFFFF" width="9.067" height="2.559"/>
	<path fill="#393C41" d="M34.122,73.361L34.122,73.361l-9.066-0.002c-0.276,0-0.5-0.224-0.5-0.5v-2.559
		c0-0.133,0.053-0.26,0.146-0.354c0.094-0.094,0.221-0.146,0.354-0.146l0,0l9.067,0.001c0.133,0,0.26,0.053,0.354,0.146
		c0.094,0.094,0.146,0.221,0.146,0.354l-0.001,2.559C34.622,73.137,34.398,73.361,34.122,73.361z M25.555,72.359l8.066,0.002
		l0.001-1.559l-8.067-0.001V72.359z"/>
</g>
<rect x="26.798" y="43.202" fill="#393C41" width="1.126" height="26.102"/>
<rect x="29.027" y="43.203" fill="#393C41" width="1.126" height="26.102"/>
<rect x="31.256" y="43.203" fill="#393C41" width="1.126" height="26.102"/>
<rect x="40.452" y="41.734" fill="#FFFFFF" width="7.569" height="28.948"/>
<path fill="#393C41" d="M48.019,71.183L48.019,71.183l-7.568-0.001c-0.276,0-0.5-0.224-0.5-0.5l0.003-28.948
	c0-0.276,0.224-0.5,0.5-0.5l0,0l7.568,0c0.133,0,0.26,0.053,0.354,0.146c0.094,0.094,0.146,0.221,0.146,0.354l-0.003,28.949
	c0,0.133-0.053,0.26-0.146,0.354C48.279,71.131,48.152,71.183,48.019,71.183z M40.951,70.182l6.568,0.001l0.003-27.949l-6.568,0
	L40.951,70.182z"/>
<g>
	<rect x="39.705" y="39.872" fill="#FFFFFF" width="9.067" height="2.559"/>
	<path fill="#393C41" d="M48.771,42.932L48.771,42.932l-9.066-0.001c-0.276,0-0.5-0.224-0.5-0.5v-2.559
		c0-0.133,0.053-0.26,0.146-0.354c0.094-0.094,0.221-0.146,0.354-0.146l0,0l9.066,0.001c0.276,0,0.5,0.224,0.5,0.5v2.559
		c0,0.133-0.053,0.26-0.146,0.354C49.031,42.879,48.904,42.932,48.771,42.932z M40.205,41.931l8.066,0.001v-1.559l-8.066-0.001
		V41.931z"/>
</g>
<g>
	<rect x="39.701" y="70.302" fill="#FFFFFF" width="9.067" height="2.559"/>
	<path fill="#393C41" d="M48.768,73.362L48.768,73.362l-9.066-0.001c-0.276,0-0.5-0.224-0.5-0.5v-2.559
		c0-0.133,0.053-0.26,0.146-0.354c0.094-0.094,0.221-0.146,0.354-0.146l0,0l9.066,0.001c0.276,0,0.5,0.224,0.5,0.5v2.559
		c0,0.133-0.053,0.26-0.146,0.354C49.028,73.309,48.901,73.362,48.768,73.362z M40.202,72.361l8.066,0.001v-1.559l-8.066-0.001
		V72.361z"/>
</g>
<rect x="41.444" y="43.204" fill="#393C41" width="1.126" height="26.102"/>
<rect x="43.673" y="43.204" fill="#393C41" width="1.126" height="26.102"/>
<rect x="45.902" y="43.204" fill="#393C41" width="1.126" height="26.102"/>
<rect x="55.098" y="41.737" fill="#FFFFFF" width="7.569" height="28.948"/>
<path fill="#393C41" d="M62.666,71.186L62.666,71.186l-7.569-0.001c-0.276,0-0.5-0.224-0.5-0.5l0.003-28.948
	c0-0.276,0.224-0.5,0.5-0.5l0,0l7.569,0c0.133,0,0.26,0.053,0.354,0.146c0.094,0.094,0.146,0.221,0.146,0.354l-0.003,28.949
	c0,0.133-0.053,0.26-0.146,0.354C62.925,71.133,62.798,71.186,62.666,71.186z M55.596,70.185l6.569,0.001l0.003-27.949l-6.569,0
	L55.596,70.185z"/>
<g>
	<rect x="54.351" y="39.875" fill="#FFFFFF" width="9.067" height="2.559"/>
	<path fill="#393C41" d="M63.418,42.934L63.418,42.934l-9.067-0.001c-0.133,0-0.26-0.053-0.353-0.146
		c-0.094-0.094-0.147-0.221-0.147-0.354l0.001-2.559c0-0.276,0.224-0.5,0.5-0.5l0,0l9.066,0.001c0.276,0,0.5,0.224,0.5,0.5v2.559
		c0,0.133-0.053,0.26-0.146,0.354C63.677,42.882,63.55,42.934,63.418,42.934z M54.85,41.933l8.067,0.001v-1.559l-8.066-0.001
		L54.85,41.933z"/>
</g>
<g>
	<rect x="54.347" y="70.305" fill="#FFFFFF" width="9.067" height="2.559"/>
	<path fill="#393C41" d="M63.414,73.364L63.414,73.364l-9.067-0.001c-0.276,0-0.5-0.224-0.5-0.5v-2.559
		c0-0.133,0.053-0.26,0.147-0.354c0.094-0.094,0.221-0.146,0.353-0.146l0,0l9.067,0.001c0.133,0,0.26,0.053,0.354,0.146
		c0.094,0.094,0.146,0.221,0.146,0.354l-0.001,2.559C63.914,73.141,63.69,73.364,63.414,73.364z M54.847,72.363l8.067,0.001
		l0.001-1.559l-8.067-0.001V72.363z"/>
</g>
<rect x="56.09" y="43.206" fill="#393C41" width="1.126" height="26.102"/>
<rect x="58.319" y="43.206" fill="#393C41" width="1.126" height="26.102"/>
<rect x="60.548" y="43.206" fill="#393C41" width="1.126" height="26.102"/>
<rect x="69.744" y="41.738" fill="#FFFFFF" width="7.569" height="28.948"/>
<path fill="#393C41" d="M77.311,71.187L77.311,71.187l-7.568-0.001c-0.276,0-0.5-0.224-0.5-0.5l0.003-28.948
	c0-0.133,0.053-0.26,0.146-0.354c0.094-0.094,0.221-0.146,0.354-0.146l0,0l7.568,0.001c0.276,0,0.5,0.224,0.5,0.5l-0.003,28.948
	c0,0.133-0.053,0.26-0.146,0.354C77.571,71.134,77.444,71.187,77.311,71.187z M70.243,70.186l6.568,0.001l0.003-27.948l-6.568-0.001
	L70.243,70.186z"/>
<g>
	<rect x="68.997" y="39.876" fill="#FFFFFF" width="9.067" height="2.559"/>
	<path fill="#393C41" d="M78.063,42.935L78.063,42.935l-9.066-0.001c-0.276,0-0.5-0.224-0.5-0.5v-2.559
		c0-0.133,0.053-0.26,0.146-0.354c0.094-0.094,0.221-0.146,0.354-0.146l0,0l9.066,0c0.276,0,0.5,0.224,0.5,0.5v2.559
		c0,0.133-0.053,0.26-0.146,0.354C78.323,42.882,78.196,42.935,78.063,42.935z M69.497,41.934l8.066,0.001v-1.559l-8.066,0V41.934z"
		/>
</g>
<g>
	<rect x="68.993" y="70.306" fill="#FFFFFF" width="9.067" height="2.559"/>
	<path fill="#393C41" d="M78.06,73.365L78.06,73.365l-9.067-0.001c-0.133,0-0.26-0.053-0.354-0.146
		c-0.094-0.094-0.146-0.221-0.146-0.354l0.001-2.559c0-0.276,0.224-0.5,0.5-0.5l0,0l9.066,0.001c0.276,0,0.5,0.224,0.5,0.5v2.559
		c0,0.133-0.053,0.26-0.146,0.354C78.32,73.313,78.193,73.365,78.06,73.365z M69.493,72.364l8.067,0.001v-1.559l-8.066-0.001
		L69.493,72.364z"/>
</g>
<rect x="70.736" y="43.207" fill="#393C41" width="1.126" height="26.102"/>
<rect x="72.965" y="43.207" fill="#393C41" width="1.126" height="26.102"/>
<rect x="75.194" y="43.208" fill="#393C41" width="1.126" height="26.102"/>
<polygon fill="#FFFFFF" points="21.643,39.309 51.563,17.509 81.478,39.316 "/>
<path fill="#393C41" d="M81.498,39.815c-0.006-0.001-0.014,0-0.02,0l0,0l-59.835-0.006c-0.217,0-0.408-0.139-0.476-0.345
	c-0.066-0.206,0.006-0.432,0.181-0.559l29.92-21.8c0.176-0.128,0.414-0.127,0.59,0l29.84,21.752c0.177,0.077,0.3,0.254,0.3,0.458
	C81.998,39.592,81.774,39.815,81.498,39.815z M23.178,38.809l56.765,0.006l-28.38-20.688L23.178,38.809z"/>
<polygon fill="#FFFFFF" points="30.983,36.469 51.562,21.474 72.138,36.473 "/>
<path fill="#393C41" d="M72.158,36.973c-0.006,0-0.014-0.001-0.02,0l0,0l-41.155-0.004c-0.217,0-0.408-0.139-0.476-0.345
	c-0.066-0.206,0.006-0.432,0.181-0.559L51.267,21.07c0.176-0.128,0.414-0.128,0.59,0l20.501,14.944c0.177,0.077,0.3,0.253,0.3,0.458
	C72.658,36.75,72.434,36.973,72.158,36.973z M32.518,35.969l38.085,0.004l-19.041-13.88L32.518,35.969z"/>
<text transform="matrix(1 0 0 1 47.6888 33.7109)" fill="#393C41" font-family="'SFProDisplay-Bold'" font-size="8.9481px">€</text>
</svg>
