<?xml version="1.0" encoding="utf-8"?>
<!-- Generator: Adobe Illustrator 27.0.0, SVG Export Plug-In . SVG Version: 6.00 Build 0)  -->
<svg version="1.1" id="Layer_1" xmlns="http://www.w3.org/2000/svg" xmlns:xlink="http://www.w3.org/1999/xlink" x="0px" y="0px"
	 viewBox="0 0 363.4 363.4" style="enable-background:new 0 0 363.4 363.4;" xml:space="preserve">
<style type="text/css">
	.st0{fill:#E3D3FA;}
	.st1{fill:#393C41;}
	.st2{fill:#FFFFFF;}
	.st3{fill:#F4ECFF;}
</style>
<g>
	<ellipse class="st0" cx="161.5" cy="161.5" rx="161.5" ry="161.5"/>
	<path class="st1" d="M91.7,136.3c0.5-0.4,0.5-1.3-0.1-1.7c-2-1.3-4.7-1.3-6.9-1.8c-3-0.6-5.8-1.8-8.3-3.6c-0.7-0.5-1.3-1.1-1.7-1.8
		c1.9,0.3,3.9,0.1,5.5-1.1c2.1-1.7,1.8-5.3,0.6-7.4c-1.7-2.8-5.3-2.8-7.7-0.9c-1.7,1.3-2.9,3.2-3.4,5.3c-2-1.2-3.4-3.2-3.2-5.8
		c0.1-0.8-0.9-0.8-1.2-0.2c-1.6,3.6,1.1,6.6,4.3,8.4c0,0.7,0.2,1.4,0.4,2.1c1.4,4.1,5.6,6.5,9.4,8C82.6,137.2,88.5,139,91.7,136.3z
		 M74.2,122.9c0.7-1.4,2.5-3.2,3.7-1.3c1.9,3-1.8,3.5-4.1,3.2C73.7,124.2,73.9,123.5,74.2,122.9z"/>
	<path class="st2" d="M239.4,151.8l-6.8-2.1c-1.8-4-4.1-7.8-6.8-11.3c-2-2.6-4.1-5.2-6.5-7.6l0.1-29.6c0-0.2,0-0.3,0-0.4
		c-0.1-3.3-1.7-5.3-4-5.7c-1.3-0.2-13.2,0-30.1,15.6c-9.6-3.1-20.1-4.8-31.1-4.8c-46,0-83.3,20.2-83.3,66c0,17.4,8.6,33.3,22.5,45.1
		L90,234.5c-1.5,4.6,3.7,10.3,11.6,12.9l7.5,2.4c4.4,1.4,8.1,1.9,11.9,0.6c1.4-0.5,7.5-8.2,12.3-14.6c6.6,1.3,13.6,2.1,20.7,2.1
		s14.1-0.7,20.7-2.1c4.9,6.4,10.9,14.1,12.3,14.6c3.7,1.3,7.5,0.8,11.9-0.6l7.5-2.4c7.9-2.5,13.1-8.3,11.6-12.9l-3.2-17.6
		c7.7-6.5,13.8-14.3,17.7-22.9l6.8-2.1c4.8-1.5,8.7-7.5,8.7-13.3v-13.4C248,159.3,244.1,153.3,239.4,151.8z"/>
	<path class="st1" d="M191.7,252.5L191.7,252.5c-1.8,0-3.4-0.3-5-0.8c-0.7-0.2-2.1-0.7-12.4-14.4c-13.1,2.5-27.1,2.5-40.2,0
		c-10.4,13.7-11.8,14.2-12.4,14.4c-3.7,1.3-7.4,1.1-12.7-0.6l-7.5-2.4c-4.1-1.3-7.6-3.5-9.9-6.1c-2.6-2.8-3.5-5.8-2.6-8.5l3.1-16.6
		c-14.4-12.5-22.4-28.7-22.4-45.6c0-42.2,31.7-67.4,84.7-67.4c10.6,0,21,1.5,30.8,4.6c16.2-14.7,27.7-15.5,29.8-15.5
		c0.4,0,0.7,0,0.9,0.1c3,0.5,5,3.2,5.1,7c0,0.2,0,0.4,0,0.5l-0.1,29c2.2,2.2,4.2,4.6,6.2,7.3c2.7,3.6,5,7.3,6.7,11l6.2,1.9
		c5.3,1.7,9.6,8.3,9.6,14.7v13.4c0,6.4-4.3,13-9.6,14.7l-6.2,1.9c-3.8,8.3-9.6,15.8-17.2,22.3l3.1,16.8c0.8,2.5-0.1,5.6-2.6,8.4
		c-2.4,2.6-5.9,4.8-9.9,6.1l-7.5,2.4C196.4,252.1,193.9,252.5,191.7,252.5z M175.4,234.2l0.5,0.7c9.3,12.3,11.3,13.9,11.7,14.2
		c1.3,0.4,2.6,0.6,4,0.6l0,0c2,0,4.2-0.4,6.9-1.3l7.5-2.4c3.6-1.2,6.7-3,8.7-5.3c1.8-2,2.6-4.1,2-5.8l-3.4-18.6l0.6-0.5
		c7.7-6.5,13.5-14.1,17.3-22.4l0.3-0.6l7.4-2.3c4.2-1.3,7.7-6.8,7.7-12v-13.4c0-5.2-3.5-10.7-7.7-12l-7.4-2.3l-0.3-0.6
		c-1.7-3.7-3.9-7.4-6.6-11.1c-2.1-2.8-4.2-5.2-6.4-7.4l-0.4-0.4l0.1-30.2l1.4-0.4l-1.4,0.1c-0.1-2.5-1.1-4.1-2.8-4.4
		c-0.1,0-0.2,0-0.4,0c-1.2,0-12.4,0.4-28.5,15.3l-0.6,0.6l-0.8-0.2c-9.8-3.1-20.1-4.7-30.7-4.7c-51.3,0-81.9,24.2-81.9,64.6
		c0,16.4,7.8,32,22,44l0.6,0.5l-3.4,18.4c-0.6,1.9,0.1,3.9,2,6c2,2.3,5.1,4.1,8.7,5.3l7.5,2.4c4.7,1.5,7.9,1.7,11,0.6
		c0.2-0.1,2.1-1.5,11.6-14.1l0.5-0.7l0.9,0.2c13.3,2.7,27.6,2.7,40.9,0L175.4,234.2z"/>
	<circle class="st1" cx="210.6" cy="152.9" r="5.4"/>
	<ellipse class="st2" cx="154.1" cy="70.8" rx="21.1" ry="21.1"/>
	<path class="st1" d="M154.1,93.2c-12.4,0-22.5-10.1-22.5-22.5s10.1-22.5,22.5-22.5s22.5,10.1,22.5,22.5S166.5,93.2,154.1,93.2z
		 M154.1,51.1c-10.9,0-19.7,8.8-19.7,19.7s8.8,19.7,19.7,19.7s19.7-8.8,19.7-19.7S164.9,51.1,154.1,51.1z"/>
	<path class="st1" d="M130,117.4c-0.7,0-1.3-0.4-1.5-1.1c-0.3-0.8,0.2-1.7,1.1-2c15.7-4.7,33.2-4.7,49,0c0.8,0.3,1.3,1.1,1.1,2
		c-0.3,0.8-1.1,1.3-2,1.1c-15.3-4.5-32-4.5-47.2,0C130.3,117.4,130.2,117.4,130,117.4z"/>
	<path class="st2" d="M219.3,130.8c2.4,2.4,4.5,4.9,6.5,7.6c0.2-0.6,0.4-1.2,0.5-1.9l5.1-29.2c0.6-3.5-0.6-5.9-2.9-6.7
		c-0.6-0.2-3.8-0.8-9.2,0.2c0,0.1,0,0.3,0,0.4L219.3,130.8z"/>
	<path class="st1" d="M226.2,141.2l-1.5-2c-2.1-2.8-4.2-5.2-6.4-7.4l-0.4-0.4l0.1-30.2V100l1.2-0.6c4.4-0.8,8.9-0.6,10-0.2
		c3,1.1,4.5,4.3,3.8,8.3l-5.1,29.2c-0.1,0.8-0.3,1.5-0.6,2.1L226.2,141.2z M220.7,130.2c1.5,1.5,3,3.2,4.4,5l5-28.2
		c0.5-2.7-0.2-4.6-2-5.2c-0.2-0.1-1.2-0.3-2.9-0.3c-1.4,0-2.8,0.1-4.4,0.4L220.7,130.2z"/>
	<g>
		<path class="st1" d="M158.9,74.5h-8.3c0.6,1.3,1.4,2.3,2.6,3c1.2,0.7,2.6,1,4.2,1c1.5,0,2.5-0.1,3.2-0.2v3.9
			c-0.8,0.2-1.9,0.3-3.2,0.3c-3,0-5.5-0.7-7.6-2.1c-2-1.4-3.4-3.4-4.1-5.9h-2.8V72h2.4c0-0.4,0-0.8,0-1.2c0-0.2,0-0.6,0-1.1h-2.4
			v-2.4h2.8c0.7-2.6,2-4.6,4.1-6s4.6-2.1,7.6-2.1c1.3,0,2.3,0.1,3.1,0.4v3.9c-0.8-0.2-1.9-0.3-3.1-0.3c-1.6,0-3,0.4-4.2,1.1
			c-1.2,0.7-2.1,1.7-2.6,3.1h8.3v2.4H150c0,0.4,0,0.7,0,1.1c0,0.5,0,0.8,0.1,1.2h8.9L158.9,74.5L158.9,74.5z"/>
	</g>
</g>
<g>
	<ellipse class="st3" cx="295.6" cy="295.6" rx="67.8" ry="67.8"/>
</g>
<g>
	<path d="M295.6,258.2c-11.9,0-22.8,5.4-29.9,14.9l-3.8,5.1v-14.1h-3.6v19.4h19.4V280h-12.2l2.3-3.3c6.3-9.2,16.7-14.8,27.9-14.8
		c17.9,0,32.6,14,33.7,31.6h3.6C331.8,273.9,315.5,258.2,295.6,258.2z"/>
	<path d="M295.6,333c11.9,0,22.8-5.4,29.9-15l3.8-5.1v14.1h3.6v-19.4h-19.4v3.6h12.2l-2.3,3.3c-6.3,9.2-16.7,14.8-27.9,14.8
		c-17.9,0-32.6-14-33.7-31.6h-3.6C259.4,317.4,275.7,333,295.6,333z"/>
</g>
</svg>
