<?xml version="1.0" encoding="utf-8"?>
<!-- Generator: Adobe Illustrator 27.0.0, SVG Export Plug-In . SVG Version: 6.00 Build 0)  -->
<svg version="1.1" id="Layer_1" xmlns="http://www.w3.org/2000/svg" xmlns:xlink="http://www.w3.org/1999/xlink" x="0px" y="0px"
	 viewBox="0 0 323 323" enable-background="new 0 0 323 323" xml:space="preserve">
<g>
	
		<ellipse transform="matrix(0.7071 -0.7071 0.7071 0.7071 -66.8955 161.4999)" fill="#E3D3FA" cx="161.5" cy="161.5" rx="161.5" ry="161.5"/>
	<path fill="#393C41" d="M83.845,134.623c0.58-0.492,0.507-1.486-0.138-1.888c-2.262-1.409-5.225-1.445-7.776-1.971
		c-3.343-0.69-6.538-1.979-9.302-3.989c-0.768-0.559-1.442-1.235-1.954-1.988c2.176,0.334,4.425,0.121,6.211-1.286
		c2.371-1.868,2.057-5.987,0.633-8.288c-1.935-3.126-5.928-3.082-8.64-1.027c-1.945,1.474-3.26,3.594-3.758,5.896
		c-2.252-1.386-3.842-3.549-3.636-6.484c0.06-0.849-1.063-0.928-1.371-0.248c-1.846,4.083,1.208,7.388,4.805,9.391
		c0.052,0.806,0.203,1.612,0.47,2.402c1.541,4.566,6.28,7.23,10.476,8.939C73.662,135.629,80.287,137.644,83.845,134.623z
		 M64.22,119.567c0.796-1.563,2.832-3.534,4.101-1.484c2.09,3.374-2.069,3.921-4.644,3.628
		C63.687,121.009,63.853,120.289,64.22,119.567z"/>
	<path fill="#8E31E8" d="M249.282,151.957l-7.615-2.393c-2.004-4.457-4.59-8.685-7.585-12.699c-2.205-2.954-4.606-5.806-7.291-8.479
		l0.086-33.191c0-0.17-0.021-0.322-0.027-0.487c-0.137-3.665-1.866-5.96-4.443-6.401c-1.511-0.258-14.827,0.006-33.777,17.485
		c-10.783-3.448-22.553-5.363-34.894-5.363c-51.55,0-93.34,22.591-93.34,73.966c0,19.546,9.584,37.309,25.211,50.533l-3.639,19.701
		c-1.645,5.101,4.198,11.551,13.051,14.406l8.435,2.721c4.904,1.583,9.094,2.121,13.289,0.679c1.598-0.549,8.355-9.172,13.794-16.38
		c7.418,1.504,15.19,2.305,23.198,2.305s15.781-0.802,23.199-2.305c5.44,7.208,12.196,15.831,13.794,16.38
		c4.195,1.442,8.385,0.903,13.289-0.679l8.435-2.721c8.853-2.856,14.696-9.306,13.051-14.406l-3.639-19.701
		c8.661-7.329,15.462-16.049,19.803-25.701l7.615-2.393c5.336-1.676,9.702-8.399,9.702-14.939v-15.004
		C258.983,160.355,254.618,153.634,249.282,151.957z"/>
	<path fill="#393C41" d="M195.833,264.843L195.833,264.843c-1.967,0-3.806-0.301-5.613-0.924c-0.82-0.28-2.331-0.798-13.946-16.133
		c-14.702,2.848-30.373,2.848-45.081,0c-11.609,15.332-13.178,15.872-13.943,16.133c-4.142,1.422-8.287,1.259-14.276-0.668
		l-8.437-2.721c-4.54-1.465-8.495-3.88-11.141-6.802c-2.857-3.152-3.894-6.554-2.919-9.576l3.423-18.617
		c-16.176-13.983-25.072-32.109-25.072-51.136c0-47.296,35.479-75.532,94.906-75.532c11.875,0,23.478,1.736,34.503,5.164
		c18.164-16.487,30.994-17.331,33.404-17.331c0.487,0,0.832,0.034,1.028,0.066c3.383,0.58,5.583,3.6,5.745,7.888
		c0.018,0.271,0.027,0.404,0.027,0.544l-0.082,32.547c2.417,2.456,4.705,5.141,6.978,8.188c3.044,4.079,5.552,8.23,7.464,12.349
		l6.947,2.183c5.956,1.872,10.801,9.244,10.801,16.433v15.003c0,7.192-4.845,14.562-10.801,16.433l-6.947,2.182
		c-4.295,9.287-10.758,17.696-19.235,25.02l3.475,18.813c0.927,2.826-0.11,6.228-2.967,9.38c-2.646,2.921-6.601,5.336-11.141,6.802
		l-8.437,2.721C201.125,264.336,198.372,264.843,195.833,264.843z M177.586,244.327l0.596,0.788
		c10.388,13.76,12.677,15.629,13.129,15.873c1.401,0.475,2.906,0.722,4.521,0.722l0,0c2.202,0,4.65-0.457,7.703-1.442l8.437-2.721
		c4.023-1.297,7.498-3.4,9.783-5.921c2.071-2.29,2.872-4.602,2.258-6.514l-3.854-20.791l0.691-0.587
		c8.654-7.322,15.176-15.783,19.388-25.147l0.288-0.641l8.287-2.603c4.665-1.465,8.605-7.622,8.605-13.444v-15.003
		c0-5.821-3.94-11.978-8.608-13.444l-8.284-2.603l-0.288-0.641c-1.854-4.121-4.347-8.295-7.412-12.405
		c-2.325-3.117-4.659-5.834-7.14-8.307l-0.465-0.46l0.089-33.844l1.539-0.482l-1.566,0.058c-0.104-2.8-1.248-4.592-3.139-4.916
		c-0.098-0.015-0.266-0.021-0.502-0.021c-1.37,0-13.915,0.48-31.952,17.115l-0.67,0.618l-0.869-0.278
		c-10.976-3.509-22.554-5.288-34.417-5.288c-57.467,0-91.774,27.065-91.774,72.4c0,18.359,8.755,35.881,24.656,49.336l0.691,0.587
		l-3.803,20.595c-0.664,2.108,0.138,4.421,2.209,6.71c2.285,2.521,5.76,4.624,9.783,5.921l8.437,2.721
		c5.295,1.707,8.813,1.886,12.301,0.688c0.248-0.142,2.404-1.733,13.05-15.841l0.596-0.788l0.967,0.196
		c14.904,3.019,30.875,3.019,45.772,0L177.586,244.327z"/>
	<circle fill="#393C41" cx="217.083" cy="153.233" r="6.02"/>
	
		<ellipse transform="matrix(0.7071 -0.7071 0.7071 0.7071 1.7787 126.6209)" fill="#8E31E8" cx="153.734" cy="61.163" rx="23.614" ry="23.614"/>
	<path fill="#393C41" d="M153.735,86.345c-13.885,0-25.182-11.297-25.182-25.182s11.297-25.181,25.182-25.181
		c13.885,0,25.179,11.296,25.179,25.181S167.62,86.345,153.735,86.345z M153.735,39.115c-12.16,0-22.049,9.891-22.049,22.048
		c0,12.158,9.89,22.05,22.049,22.05c12.157,0,22.046-9.892,22.046-22.05C175.781,49.006,165.892,39.115,153.735,39.115z"/>
	<path fill="#393C41" d="M126.79,113.396c-0.771,0-1.484-0.501-1.716-1.278c-0.284-0.948,0.254-1.947,1.202-2.232
		c17.646-5.293,37.148-5.294,54.915-0.001c0.949,0.283,1.488,1.281,1.206,2.23c-0.282,0.949-1.28,1.489-2.229,1.206
		c-17.104-5.095-35.877-5.095-52.861-0.001C127.134,113.371,126.96,113.396,126.79,113.396z"/>
	<path fill="#8E31E8" d="M226.79,128.387c2.685,2.673,5.086,5.525,7.291,8.479c0.245-0.627,0.44-1.324,0.574-2.093l5.762-32.769
		c0.685-3.9-0.654-6.636-3.23-7.549c-0.713-0.253-4.299-0.865-10.339,0.254c0.006,0.165,0.027,0.316,0.027,0.487L226.79,128.387z"/>
	<path fill="#393C41" d="M234.512,140.068l-1.688-2.265c-2.322-3.117-4.656-5.834-7.137-8.307l-0.465-0.46l0.089-33.844
		l-0.049-1.351l1.303-0.671c4.974-0.918,9.92-0.626,11.15-0.19c3.414,1.208,5.041,4.771,4.246,9.295l-5.763,32.77
		c-0.147,0.847-0.37,1.652-0.658,2.391L234.512,140.068z M228.36,127.743c1.704,1.731,3.344,3.578,4.959,5.583l5.558-31.592
		c0.526-3.002-0.278-5.118-2.212-5.802c-0.19-0.064-1.3-0.306-3.301-0.306c-1.523,0-3.175,0.134-4.925,0.402L228.36,127.743z"/>
	<g>
		<path fill="#393C41" d="M159.095,65.309h-9.261c0.624,1.469,1.596,2.593,2.913,3.373c1.318,0.781,2.873,1.171,4.665,1.171
			c1.642,0,2.833-0.092,3.573-0.277v4.37c-0.948,0.197-2.146,0.295-3.59,0.295c-3.377,0-6.212-0.777-8.507-2.333
			s-3.818-3.755-4.57-6.599h-3.19v-2.74h2.74c-0.035-0.439-0.053-0.878-0.053-1.318c0-0.277,0.012-0.682,0.035-1.214h-2.723v-2.74
			h3.156c0.739-2.879,2.263-5.102,4.569-6.668c2.307-1.566,5.154-2.35,8.542-2.35c1.434,0,2.606,0.133,3.521,0.399v4.318
			c-0.948-0.208-2.093-0.312-3.435-0.312c-1.814,0-3.393,0.396-4.734,1.188c-1.341,0.792-2.323,1.934-2.948,3.425h9.296v2.74h-9.972
			c-0.035,0.393-0.053,0.798-0.053,1.214c0,0.509,0.023,0.948,0.069,1.318h9.955V65.309z"/>
	</g>
</g>
</svg>
